<mxfile host="app.diagrams.net" agent="Mozilla/5.0 (Windows NT 10.0; Win64; x64) AppleWebKit/537.36 (KHTML, like Gecko) Chrome/133.0.0.0 Safari/537.36 OPR/118.0.0.0" version="27.0.6">
  <diagram name="PÃ¡gina-1" id="rB18t47rxBW_GN99F9sN">
    <mxGraphModel dx="2253" dy="831" grid="1" gridSize="10" guides="1" tooltips="1" connect="1" arrows="1" fold="1" page="1" pageScale="1" pageWidth="827" pageHeight="1169" math="0" shadow="0">
      <root>
        <mxCell id="0" />
        <mxCell id="1" parent="0" />
        <mxCell id="Z5y-wLPlk-kDe0BRaa71-8" style="edgeStyle=orthogonalEdgeStyle;rounded=0;orthogonalLoop=1;jettySize=auto;html=1;exitX=1;exitY=0.5;exitDx=0;exitDy=0;entryX=0;entryY=0.5;entryDx=0;entryDy=0;" edge="1" parent="1" source="dTEgkXR-y2uKhhOygLtW-63" target="Z5y-wLPlk-kDe0BRaa71-5">
          <mxGeometry relative="1" as="geometry" />
        </mxCell>
        <mxCell id="dTEgkXR-y2uKhhOygLtW-63" value="brands" style="rounded=1;whiteSpace=wrap;html=1;" parent="1" vertex="1">
          <mxGeometry x="-725" y="411" width="120" height="60" as="geometry" />
        </mxCell>
        <mxCell id="dTEgkXR-y2uKhhOygLtW-64" value="fuel_types" style="rounded=1;whiteSpace=wrap;html=1;" parent="1" vertex="1">
          <mxGeometry x="-27" y="721" width="120" height="60" as="geometry" />
        </mxCell>
        <mxCell id="dTEgkXR-y2uKhhOygLtW-65" value="transmissions" style="rounded=1;whiteSpace=wrap;html=1;" parent="1" vertex="1">
          <mxGeometry x="-27" y="90" width="120" height="60" as="geometry" />
        </mxCell>
        <mxCell id="Z5y-wLPlk-kDe0BRaa71-10" style="edgeStyle=orthogonalEdgeStyle;rounded=0;orthogonalLoop=1;jettySize=auto;html=1;exitX=1;exitY=0.5;exitDx=0;exitDy=0;entryX=0;entryY=0.5;entryDx=0;entryDy=0;" edge="1" parent="1" source="dTEgkXR-y2uKhhOygLtW-66" target="Z5y-wLPlk-kDe0BRaa71-6">
          <mxGeometry relative="1" as="geometry" />
        </mxCell>
        <mxCell id="dTEgkXR-y2uKhhOygLtW-66" value="models" style="rounded=1;whiteSpace=wrap;html=1;" parent="1" vertex="1">
          <mxGeometry x="-396" y="411" width="120" height="60" as="geometry" />
        </mxCell>
        <mxCell id="Z5y-wLPlk-kDe0BRaa71-14" style="edgeStyle=orthogonalEdgeStyle;rounded=0;orthogonalLoop=1;jettySize=auto;html=1;exitX=0.5;exitY=1;exitDx=0;exitDy=0;entryX=0.5;entryY=0;entryDx=0;entryDy=0;" edge="1" parent="1" source="dTEgkXR-y2uKhhOygLtW-67" target="Z5y-wLPlk-kDe0BRaa71-13">
          <mxGeometry relative="1" as="geometry" />
        </mxCell>
        <mxCell id="Z5y-wLPlk-kDe0BRaa71-17" style="edgeStyle=orthogonalEdgeStyle;rounded=0;orthogonalLoop=1;jettySize=auto;html=1;exitX=0.5;exitY=0;exitDx=0;exitDy=0;entryX=0.5;entryY=1;entryDx=0;entryDy=0;" edge="1" parent="1" source="dTEgkXR-y2uKhhOygLtW-67" target="Z5y-wLPlk-kDe0BRaa71-16">
          <mxGeometry relative="1" as="geometry" />
        </mxCell>
        <mxCell id="dTEgkXR-y2uKhhOygLtW-67" value="cars" style="rounded=1;whiteSpace=wrap;html=1;" parent="1" vertex="1">
          <mxGeometry x="-27" y="411" width="120" height="60" as="geometry" />
        </mxCell>
        <mxCell id="dTEgkXR-y2uKhhOygLtW-68" value="id_brand" style="ellipse;whiteSpace=wrap;html=1;" parent="1" vertex="1">
          <mxGeometry x="-790" y="341" width="70" height="50" as="geometry" />
        </mxCell>
        <mxCell id="dTEgkXR-y2uKhhOygLtW-69" value="brand_name" style="ellipse;whiteSpace=wrap;html=1;" parent="1" vertex="1">
          <mxGeometry x="-610" y="341" width="90" height="50" as="geometry" />
        </mxCell>
        <mxCell id="dTEgkXR-y2uKhhOygLtW-70" value="" style="endArrow=none;html=1;rounded=0;entryX=1;entryY=1;entryDx=0;entryDy=0;exitX=0;exitY=0;exitDx=0;exitDy=0;" parent="1" source="dTEgkXR-y2uKhhOygLtW-63" target="dTEgkXR-y2uKhhOygLtW-68" edge="1">
          <mxGeometry width="50" height="50" relative="1" as="geometry">
            <mxPoint x="-780" y="511" as="sourcePoint" />
            <mxPoint x="-730" y="461" as="targetPoint" />
          </mxGeometry>
        </mxCell>
        <mxCell id="dTEgkXR-y2uKhhOygLtW-71" value="" style="endArrow=none;html=1;rounded=0;entryX=0;entryY=1;entryDx=0;entryDy=0;exitX=1;exitY=0;exitDx=0;exitDy=0;" parent="1" source="dTEgkXR-y2uKhhOygLtW-63" target="dTEgkXR-y2uKhhOygLtW-69" edge="1">
          <mxGeometry width="50" height="50" relative="1" as="geometry">
            <mxPoint x="-715" y="421" as="sourcePoint" />
            <mxPoint x="-720" y="394" as="targetPoint" />
          </mxGeometry>
        </mxCell>
        <mxCell id="dTEgkXR-y2uKhhOygLtW-72" value="id_fuel" style="ellipse;whiteSpace=wrap;html=1;" parent="1" vertex="1">
          <mxGeometry x="-101" y="801" width="70" height="50" as="geometry" />
        </mxCell>
        <mxCell id="dTEgkXR-y2uKhhOygLtW-73" value="fuel_type" style="ellipse;whiteSpace=wrap;html=1;" parent="1" vertex="1">
          <mxGeometry x="94" y="801" width="90" height="50" as="geometry" />
        </mxCell>
        <mxCell id="dTEgkXR-y2uKhhOygLtW-74" value="" style="endArrow=none;html=1;rounded=0;exitX=0;exitY=1;exitDx=0;exitDy=0;entryX=1;entryY=0;entryDx=0;entryDy=0;" parent="1" source="dTEgkXR-y2uKhhOygLtW-64" target="dTEgkXR-y2uKhhOygLtW-72" edge="1">
          <mxGeometry width="50" height="50" relative="1" as="geometry">
            <mxPoint x="-21" y="701" as="sourcePoint" />
            <mxPoint x="5" y="841.3809756324405" as="targetPoint" />
          </mxGeometry>
        </mxCell>
        <mxCell id="dTEgkXR-y2uKhhOygLtW-75" value="" style="endArrow=none;html=1;rounded=0;entryX=0;entryY=0;entryDx=0;entryDy=0;exitX=1;exitY=1;exitDx=0;exitDy=0;" parent="1" source="dTEgkXR-y2uKhhOygLtW-64" target="dTEgkXR-y2uKhhOygLtW-73" edge="1">
          <mxGeometry width="50" height="50" relative="1" as="geometry">
            <mxPoint x="99" y="701" as="sourcePoint" />
            <mxPoint x="-16" y="684" as="targetPoint" />
          </mxGeometry>
        </mxCell>
        <mxCell id="dTEgkXR-y2uKhhOygLtW-76" value="id_trans" style="ellipse;whiteSpace=wrap;html=1;" parent="1" vertex="1">
          <mxGeometry x="-97" y="20" width="70" height="50" as="geometry" />
        </mxCell>
        <mxCell id="dTEgkXR-y2uKhhOygLtW-77" value="transmission_type" style="ellipse;whiteSpace=wrap;html=1;" parent="1" vertex="1">
          <mxGeometry x="84" y="20" width="110" height="50" as="geometry" />
        </mxCell>
        <mxCell id="dTEgkXR-y2uKhhOygLtW-78" value="" style="endArrow=none;html=1;rounded=0;entryX=1;entryY=1;entryDx=0;entryDy=0;exitX=0;exitY=0;exitDx=0;exitDy=0;" parent="1" source="dTEgkXR-y2uKhhOygLtW-65" target="dTEgkXR-y2uKhhOygLtW-76" edge="1">
          <mxGeometry width="50" height="50" relative="1" as="geometry">
            <mxPoint x="-31" y="90" as="sourcePoint" />
            <mxPoint x="-31" y="120" as="targetPoint" />
          </mxGeometry>
        </mxCell>
        <mxCell id="dTEgkXR-y2uKhhOygLtW-79" value="" style="endArrow=none;html=1;rounded=0;entryX=0;entryY=1;entryDx=0;entryDy=0;exitX=1;exitY=0;exitDx=0;exitDy=0;" parent="1" source="dTEgkXR-y2uKhhOygLtW-65" target="dTEgkXR-y2uKhhOygLtW-77" edge="1">
          <mxGeometry width="50" height="50" relative="1" as="geometry">
            <mxPoint x="89" y="90" as="sourcePoint" />
            <mxPoint x="-21" y="53" as="targetPoint" />
          </mxGeometry>
        </mxCell>
        <mxCell id="dTEgkXR-y2uKhhOygLtW-80" value="id_model" style="ellipse;whiteSpace=wrap;html=1;" parent="1" vertex="1">
          <mxGeometry x="-476" y="341" width="70" height="50" as="geometry" />
        </mxCell>
        <mxCell id="dTEgkXR-y2uKhhOygLtW-81" value="model_name" style="ellipse;whiteSpace=wrap;html=1;" parent="1" vertex="1">
          <mxGeometry x="-378.5" y="311" width="85" height="50" as="geometry" />
        </mxCell>
        <mxCell id="dTEgkXR-y2uKhhOygLtW-82" value="id_brand" style="ellipse;whiteSpace=wrap;html=1;" parent="1" vertex="1">
          <mxGeometry x="-266" y="341" width="70" height="50" as="geometry" />
        </mxCell>
        <mxCell id="dTEgkXR-y2uKhhOygLtW-84" value="" style="endArrow=none;html=1;rounded=0;entryX=0;entryY=0;entryDx=0;entryDy=0;exitX=1;exitY=1;exitDx=0;exitDy=0;" parent="1" source="dTEgkXR-y2uKhhOygLtW-80" target="dTEgkXR-y2uKhhOygLtW-66" edge="1">
          <mxGeometry width="50" height="50" relative="1" as="geometry">
            <mxPoint x="-446" y="491" as="sourcePoint" />
            <mxPoint x="-396" y="441" as="targetPoint" />
          </mxGeometry>
        </mxCell>
        <mxCell id="dTEgkXR-y2uKhhOygLtW-85" value="" style="endArrow=none;html=1;rounded=0;entryX=0.5;entryY=0;entryDx=0;entryDy=0;exitX=0.5;exitY=1;exitDx=0;exitDy=0;" parent="1" source="dTEgkXR-y2uKhhOygLtW-81" target="dTEgkXR-y2uKhhOygLtW-66" edge="1">
          <mxGeometry width="50" height="50" relative="1" as="geometry">
            <mxPoint x="-366" y="374" as="sourcePoint" />
            <mxPoint x="-346" y="401" as="targetPoint" />
          </mxGeometry>
        </mxCell>
        <mxCell id="dTEgkXR-y2uKhhOygLtW-86" value="" style="endArrow=none;html=1;rounded=0;entryX=1;entryY=0;entryDx=0;entryDy=0;exitX=0;exitY=1;exitDx=0;exitDy=0;" parent="1" source="dTEgkXR-y2uKhhOygLtW-82" target="dTEgkXR-y2uKhhOygLtW-66" edge="1">
          <mxGeometry width="50" height="50" relative="1" as="geometry">
            <mxPoint x="-396" y="404" as="sourcePoint" />
            <mxPoint x="-376" y="431" as="targetPoint" />
          </mxGeometry>
        </mxCell>
        <mxCell id="dTEgkXR-y2uKhhOygLtW-89" value="price" style="ellipse;whiteSpace=wrap;html=1;" parent="1" vertex="1">
          <mxGeometry x="-126" y="471" width="70" height="50" as="geometry" />
        </mxCell>
        <mxCell id="dTEgkXR-y2uKhhOygLtW-90" value="id_car" style="ellipse;whiteSpace=wrap;html=1;" parent="1" vertex="1">
          <mxGeometry x="-126" y="361" width="70" height="50" as="geometry" />
        </mxCell>
        <mxCell id="dTEgkXR-y2uKhhOygLtW-91" value="id_model" style="ellipse;whiteSpace=wrap;html=1;" parent="1" vertex="1">
          <mxGeometry x="-73" y="311" width="70" height="50" as="geometry" />
        </mxCell>
        <mxCell id="dTEgkXR-y2uKhhOygLtW-92" value="owner_count" style="ellipse;whiteSpace=wrap;html=1;" parent="1" vertex="1">
          <mxGeometry x="-73" y="521" width="70" height="50" as="geometry" />
        </mxCell>
        <mxCell id="dTEgkXR-y2uKhhOygLtW-93" value="doors" style="ellipse;whiteSpace=wrap;html=1;" parent="1" vertex="1">
          <mxGeometry x="58" y="521" width="70" height="50" as="geometry" />
        </mxCell>
        <mxCell id="dTEgkXR-y2uKhhOygLtW-94" value="mileage" style="ellipse;whiteSpace=wrap;html=1;" parent="1" vertex="1">
          <mxGeometry x="128" y="491" width="70" height="50" as="geometry" />
        </mxCell>
        <mxCell id="dTEgkXR-y2uKhhOygLtW-95" value="id_trans" style="ellipse;whiteSpace=wrap;html=1;" parent="1" vertex="1">
          <mxGeometry x="164" y="441" width="70" height="50" as="geometry" />
        </mxCell>
        <mxCell id="dTEgkXR-y2uKhhOygLtW-96" value="id_fuel" style="ellipse;whiteSpace=wrap;html=1;" parent="1" vertex="1">
          <mxGeometry x="164" y="381" width="70" height="50" as="geometry" />
        </mxCell>
        <mxCell id="dTEgkXR-y2uKhhOygLtW-97" value="year" style="ellipse;whiteSpace=wrap;html=1;" parent="1" vertex="1">
          <mxGeometry x="58" y="311" width="70" height="50" as="geometry" />
        </mxCell>
        <mxCell id="dTEgkXR-y2uKhhOygLtW-98" value="engine_size" style="ellipse;whiteSpace=wrap;html=1;" parent="1" vertex="1">
          <mxGeometry x="128" y="331" width="70" height="50" as="geometry" />
        </mxCell>
        <mxCell id="dTEgkXR-y2uKhhOygLtW-99" value="" style="endArrow=none;html=1;rounded=0;entryX=0;entryY=1;entryDx=0;entryDy=0;exitX=1;exitY=0;exitDx=0;exitDy=0;" parent="1" source="dTEgkXR-y2uKhhOygLtW-89" target="dTEgkXR-y2uKhhOygLtW-67" edge="1">
          <mxGeometry width="50" height="50" relative="1" as="geometry">
            <mxPoint x="27" y="541" as="sourcePoint" />
            <mxPoint x="77" y="491" as="targetPoint" />
          </mxGeometry>
        </mxCell>
        <mxCell id="dTEgkXR-y2uKhhOygLtW-100" value="" style="endArrow=none;html=1;rounded=0;entryX=0;entryY=0;entryDx=0;entryDy=0;exitX=1;exitY=0.5;exitDx=0;exitDy=0;" parent="1" source="dTEgkXR-y2uKhhOygLtW-90" target="dTEgkXR-y2uKhhOygLtW-67" edge="1">
          <mxGeometry width="50" height="50" relative="1" as="geometry">
            <mxPoint x="-43" y="498" as="sourcePoint" />
            <mxPoint x="-17" y="481" as="targetPoint" />
          </mxGeometry>
        </mxCell>
        <mxCell id="dTEgkXR-y2uKhhOygLtW-101" value="" style="endArrow=none;html=1;rounded=0;entryX=0.25;entryY=0;entryDx=0;entryDy=0;exitX=1;exitY=1;exitDx=0;exitDy=0;" parent="1" source="dTEgkXR-y2uKhhOygLtW-91" target="dTEgkXR-y2uKhhOygLtW-67" edge="1">
          <mxGeometry width="50" height="50" relative="1" as="geometry">
            <mxPoint x="-33" y="508" as="sourcePoint" />
            <mxPoint x="-7" y="491" as="targetPoint" />
          </mxGeometry>
        </mxCell>
        <mxCell id="dTEgkXR-y2uKhhOygLtW-102" value="" style="endArrow=none;html=1;rounded=0;entryX=0.75;entryY=0;entryDx=0;entryDy=0;exitX=0.5;exitY=1;exitDx=0;exitDy=0;" parent="1" source="dTEgkXR-y2uKhhOygLtW-97" target="dTEgkXR-y2uKhhOygLtW-67" edge="1">
          <mxGeometry width="50" height="50" relative="1" as="geometry">
            <mxPoint x="-23" y="518" as="sourcePoint" />
            <mxPoint x="3" y="501" as="targetPoint" />
          </mxGeometry>
        </mxCell>
        <mxCell id="dTEgkXR-y2uKhhOygLtW-103" value="" style="endArrow=none;html=1;rounded=0;entryX=1;entryY=0;entryDx=0;entryDy=0;exitX=0.5;exitY=1;exitDx=0;exitDy=0;" parent="1" source="dTEgkXR-y2uKhhOygLtW-98" target="dTEgkXR-y2uKhhOygLtW-67" edge="1">
          <mxGeometry width="50" height="50" relative="1" as="geometry">
            <mxPoint x="-13" y="528" as="sourcePoint" />
            <mxPoint x="13" y="511" as="targetPoint" />
          </mxGeometry>
        </mxCell>
        <mxCell id="dTEgkXR-y2uKhhOygLtW-104" value="" style="endArrow=none;html=1;rounded=0;entryX=1;entryY=0.25;entryDx=0;entryDy=0;exitX=0;exitY=1;exitDx=0;exitDy=0;" parent="1" source="dTEgkXR-y2uKhhOygLtW-96" target="dTEgkXR-y2uKhhOygLtW-67" edge="1">
          <mxGeometry width="50" height="50" relative="1" as="geometry">
            <mxPoint x="-3" y="538" as="sourcePoint" />
            <mxPoint x="23" y="521" as="targetPoint" />
          </mxGeometry>
        </mxCell>
        <mxCell id="dTEgkXR-y2uKhhOygLtW-105" value="" style="endArrow=none;html=1;rounded=0;entryX=1;entryY=0.75;entryDx=0;entryDy=0;exitX=0;exitY=0.5;exitDx=0;exitDy=0;" parent="1" source="dTEgkXR-y2uKhhOygLtW-95" target="dTEgkXR-y2uKhhOygLtW-67" edge="1">
          <mxGeometry width="50" height="50" relative="1" as="geometry">
            <mxPoint x="7" y="548" as="sourcePoint" />
            <mxPoint x="33" y="531" as="targetPoint" />
          </mxGeometry>
        </mxCell>
        <mxCell id="dTEgkXR-y2uKhhOygLtW-106" value="" style="endArrow=none;html=1;rounded=0;entryX=1;entryY=1;entryDx=0;entryDy=0;exitX=0;exitY=0;exitDx=0;exitDy=0;" parent="1" source="dTEgkXR-y2uKhhOygLtW-94" target="dTEgkXR-y2uKhhOygLtW-67" edge="1">
          <mxGeometry width="50" height="50" relative="1" as="geometry">
            <mxPoint x="17" y="558" as="sourcePoint" />
            <mxPoint x="43" y="541" as="targetPoint" />
          </mxGeometry>
        </mxCell>
        <mxCell id="dTEgkXR-y2uKhhOygLtW-107" value="" style="endArrow=none;html=1;rounded=0;entryX=0.5;entryY=0;entryDx=0;entryDy=0;exitX=0.75;exitY=1;exitDx=0;exitDy=0;" parent="1" source="dTEgkXR-y2uKhhOygLtW-67" target="dTEgkXR-y2uKhhOygLtW-93" edge="1">
          <mxGeometry width="50" height="50" relative="1" as="geometry">
            <mxPoint x="27" y="568" as="sourcePoint" />
            <mxPoint x="53" y="551" as="targetPoint" />
          </mxGeometry>
        </mxCell>
        <mxCell id="dTEgkXR-y2uKhhOygLtW-108" value="" style="endArrow=none;html=1;rounded=0;entryX=0.25;entryY=1;entryDx=0;entryDy=0;exitX=0.623;exitY=0.063;exitDx=0;exitDy=0;exitPerimeter=0;" parent="1" source="dTEgkXR-y2uKhhOygLtW-92" target="dTEgkXR-y2uKhhOygLtW-67" edge="1">
          <mxGeometry width="50" height="50" relative="1" as="geometry">
            <mxPoint x="37" y="578" as="sourcePoint" />
            <mxPoint x="63" y="561" as="targetPoint" />
          </mxGeometry>
        </mxCell>
        <mxCell id="Z5y-wLPlk-kDe0BRaa71-9" style="edgeStyle=orthogonalEdgeStyle;rounded=0;orthogonalLoop=1;jettySize=auto;html=1;exitX=1;exitY=0.5;exitDx=0;exitDy=0;entryX=0;entryY=0.5;entryDx=0;entryDy=0;" edge="1" parent="1" source="Z5y-wLPlk-kDe0BRaa71-5" target="dTEgkXR-y2uKhhOygLtW-66">
          <mxGeometry relative="1" as="geometry" />
        </mxCell>
        <mxCell id="Z5y-wLPlk-kDe0BRaa71-5" value="Possui&lt;div&gt;1 - N&lt;/div&gt;" style="rhombus;whiteSpace=wrap;html=1;" vertex="1" parent="1">
          <mxGeometry x="-540" y="401" width="80" height="80" as="geometry" />
        </mxCell>
        <mxCell id="Z5y-wLPlk-kDe0BRaa71-11" style="edgeStyle=orthogonalEdgeStyle;rounded=0;orthogonalLoop=1;jettySize=auto;html=1;exitX=1;exitY=0.5;exitDx=0;exitDy=0;entryX=0;entryY=0.5;entryDx=0;entryDy=0;" edge="1" parent="1" source="Z5y-wLPlk-kDe0BRaa71-6" target="dTEgkXR-y2uKhhOygLtW-67">
          <mxGeometry relative="1" as="geometry" />
        </mxCell>
        <mxCell id="Z5y-wLPlk-kDe0BRaa71-6" value="Possui&lt;div&gt;1 - M&lt;/div&gt;" style="rhombus;whiteSpace=wrap;html=1;" vertex="1" parent="1">
          <mxGeometry x="-196" y="401" width="80" height="80" as="geometry" />
        </mxCell>
        <mxCell id="Z5y-wLPlk-kDe0BRaa71-15" style="edgeStyle=orthogonalEdgeStyle;rounded=0;orthogonalLoop=1;jettySize=auto;html=1;exitX=0.5;exitY=1;exitDx=0;exitDy=0;entryX=0.5;entryY=0;entryDx=0;entryDy=0;" edge="1" parent="1" source="Z5y-wLPlk-kDe0BRaa71-13" target="dTEgkXR-y2uKhhOygLtW-64">
          <mxGeometry relative="1" as="geometry" />
        </mxCell>
        <mxCell id="Z5y-wLPlk-kDe0BRaa71-13" value="Possui&lt;div&gt;1 - P&lt;/div&gt;" style="rhombus;whiteSpace=wrap;html=1;" vertex="1" parent="1">
          <mxGeometry x="-7" y="571" width="80" height="80" as="geometry" />
        </mxCell>
        <mxCell id="Z5y-wLPlk-kDe0BRaa71-18" style="edgeStyle=orthogonalEdgeStyle;rounded=0;orthogonalLoop=1;jettySize=auto;html=1;exitX=0.5;exitY=0;exitDx=0;exitDy=0;entryX=0.5;entryY=1;entryDx=0;entryDy=0;" edge="1" parent="1" source="Z5y-wLPlk-kDe0BRaa71-16" target="dTEgkXR-y2uKhhOygLtW-65">
          <mxGeometry relative="1" as="geometry" />
        </mxCell>
        <mxCell id="Z5y-wLPlk-kDe0BRaa71-16" value="Possui&lt;div&gt;1 - 1&lt;/div&gt;" style="rhombus;whiteSpace=wrap;html=1;" vertex="1" parent="1">
          <mxGeometry x="-7" y="231" width="80" height="80" as="geometry" />
        </mxCell>
        <mxCell id="Z5y-wLPlk-kDe0BRaa71-19" value="1" style="text;html=1;align=center;verticalAlign=middle;whiteSpace=wrap;rounded=0;" vertex="1" parent="1">
          <mxGeometry x="-590" y="441" width="26" height="30" as="geometry" />
        </mxCell>
        <mxCell id="Z5y-wLPlk-kDe0BRaa71-20" value="N" style="text;html=1;align=center;verticalAlign=middle;whiteSpace=wrap;rounded=0;" vertex="1" parent="1">
          <mxGeometry x="-440" y="441" width="26" height="30" as="geometry" />
        </mxCell>
        <mxCell id="Z5y-wLPlk-kDe0BRaa71-21" value="1" style="text;html=1;align=center;verticalAlign=middle;whiteSpace=wrap;rounded=0;" vertex="1" parent="1">
          <mxGeometry x="-250" y="441" width="26" height="30" as="geometry" />
        </mxCell>
        <mxCell id="Z5y-wLPlk-kDe0BRaa71-22" value="M" style="text;html=1;align=center;verticalAlign=middle;whiteSpace=wrap;rounded=0;" vertex="1" parent="1">
          <mxGeometry x="-97" y="441" width="26" height="30" as="geometry" />
        </mxCell>
        <mxCell id="Z5y-wLPlk-kDe0BRaa71-23" value="1" style="text;html=1;align=center;verticalAlign=middle;whiteSpace=wrap;rounded=0;" vertex="1" parent="1">
          <mxGeometry x="32" y="351" width="26" height="30" as="geometry" />
        </mxCell>
        <mxCell id="Z5y-wLPlk-kDe0BRaa71-24" value="1" style="text;html=1;align=center;verticalAlign=middle;whiteSpace=wrap;rounded=0;" vertex="1" parent="1">
          <mxGeometry x="32" y="181" width="26" height="30" as="geometry" />
        </mxCell>
        <mxCell id="Z5y-wLPlk-kDe0BRaa71-25" value="1" style="text;html=1;align=center;verticalAlign=middle;whiteSpace=wrap;rounded=0;" vertex="1" parent="1">
          <mxGeometry x="32" y="501" width="26" height="30" as="geometry" />
        </mxCell>
        <mxCell id="Z5y-wLPlk-kDe0BRaa71-26" value="P" style="text;html=1;align=center;verticalAlign=middle;whiteSpace=wrap;rounded=0;" vertex="1" parent="1">
          <mxGeometry x="32" y="671" width="26" height="30" as="geometry" />
        </mxCell>
      </root>
    </mxGraphModel>
  </diagram>
</mxfile>
